# xmcd
#
# Track frame offsets:
#	183
#	13670
#	28465
#	41188
#	52660
#	65538
#	79518
#	95295
#	109510
#	122398
#	134883
#	149560
#	165578
#	180920
#	197525
#	215460
#	230813
#	247738
#
# Disc length: 3558 seconds
#
# Revision: 1
# Processed by: cddbd v1.5.2PL0 Copyright (c) Steve Scherf et al.
# Submitted via: audiograbber 1.83.01
#
DISCID=f30de412
DTITLE=Costa de amore  - Spanische Sommertraeume
DYEAR=1900
DGENRE=
TTITLE0=Cindy and Bert  - Spaniens Gitarren  
TTITLE1=Nina and Mike  - Fernando s Bodega  
TTITLE2=Die Flippers  - Costa del Amor  
TTITLE3=Peter Alexander  - Spanisch war die Nacht  
TTITLE4=De Bläck Fööss  - Et Spanien Leed 
TTITLE5=Rex Gildo  - Rendezvous auf Spanisch  
TTITLE6=Karel Gott  - Spanisch war der Sommer  
TTITLE7=Cindy and Bert  - Wenn die Rosen erblühen in Malaga  
TTITLE8=Peggy March  - Costa Brava  
TTITLE9=Christian Anders  - Spanischer Wein  
TTITLE10=Engelbert  - The Spanisch Night is Over  
TTITLE11=Audrey Landers  - Playa Blanca  
TTITLE12=Chris Wolff  - Palme de Mallorca  
TTITLE13=Imca Marina  - Viva Espana  
TTITLE14=Die Flippers  - Ein Sommer lang auf Mallorca  
TTITLE15=Manuela  - Ole Mallorca  
TTITLE16=Catarina Valente  - Flamenco Espanol  
TTITLE17=Heino - Barcelona 
EXTD=
EXTT0=
EXTT1=
EXTT2=
EXTT3=
EXTT4=
EXTT5=
EXTT6=
EXTT7=
EXTT8=
EXTT9=
EXTT10=
EXTT11=
EXTT12=
EXTT13=
EXTT14=
EXTT15=
EXTT16=
EXTT17=
PLAYORDER=
